<svg xmlns="http://www.w3.org/2000/svg" xmlns:xlink="http://www.w3.org/1999/xlink" contentStyleType="text/css" data-diagram-type="ACTIVITY" height="703px" preserveAspectRatio="none" style="width:499px;height:703px;background:#FFFFFF;" version="1.1" viewBox="0 0 499 703" width="499px" zoomAndPan="magnify"><defs/><g><ellipse cx="252.8574" cy="20" fill="#222222" rx="10" ry="10" style="stroke:#222222;stroke-width:1;"/><rect fill="#F1F1F1" height="33.9688" rx="12.5" ry="12.5" style="stroke:#181818;stroke-width:0.5;" width="84.2363" x="210.7393" y="50"/><text fill="#000000" font-family="sans-serif" font-size="12" lengthAdjust="spacing" textLength="64.2363" x="220.7393" y="71.1387">Nucleo Init</text><line style="stroke:#181818;stroke-width:1.5;" x1="126.25" x2="382.1074" y1="103.9688" y2="103.9688"/><rect fill="#FF0000" height="516.0781" style="stroke:#000000;stroke-width:1.5;" width="254.5" x="11" y="113.9688"/><path d="M114.3652,113.9688 L114.3652,123.2656 L104.3652,133.2656 L11,133.2656" fill="none" style="stroke:#000000;stroke-width:1.5;"/><text fill="#000000" font-family="sans-serif" font-size="14" lengthAdjust="spacing" textLength="93.3652" x="14" y="127.9639">transmit loop</text><rect fill="#F1F1F1" height="33.9688" rx="12.5" ry="12.5" style="stroke:#181818;stroke-width:0.5;" width="187.9414" x="32.2793" y="194.2656"/><text fill="#000000" font-family="sans-serif" font-size="12" lengthAdjust="spacing" textLength="167.9414" x="42.2793" y="215.4043">Interrupt from Angle Sensor</text><rect fill="#F1F1F1" height="33.9688" rx="12.5" ry="12.5" style="stroke:#181818;stroke-width:0.5;" width="179.9785" x="36.2607" y="263.2344"/><text fill="#000000" font-family="sans-serif" font-size="12" lengthAdjust="spacing" textLength="159.9785" x="46.2607" y="284.373">Read Angle Sensor (CAN2)</text><rect fill="#F1F1F1" height="33.9688" rx="12.5" ry="12.5" style="stroke:#181818;stroke-width:0.5;" width="210.5" x="21" y="317.2031"/><text fill="#000000" font-family="sans-serif" font-size="12" lengthAdjust="spacing" textLength="190.5" x="31" y="338.3418">Read Temperature Sensor (I2C)</text><rect fill="#F1F1F1" height="33.9688" rx="12.5" ry="12.5" style="stroke:#181818;stroke-width:0.5;" width="139.0566" x="56.7217" y="371.1719"/><text fill="#000000" font-family="sans-serif" font-size="12" lengthAdjust="spacing" textLength="119.0566" x="66.7217" y="392.3105">Read Current (ADC)</text><rect fill="#F1F1F1" height="33.9688" rx="12.5" ry="12.5" style="stroke:#181818;stroke-width:0.5;" width="123.002" x="64.749" y="425.1406"/><text fill="#000000" font-family="sans-serif" font-size="12" lengthAdjust="spacing" textLength="103.002" x="74.749" y="446.2793">Read Driver (SPI)</text><rect fill="#F1F1F1" height="33.9688" rx="12.5" ry="12.5" style="stroke:#181818;stroke-width:0.5;" width="169.6602" x="41.4199" y="479.1094"/><text fill="#000000" font-family="sans-serif" font-size="12" lengthAdjust="spacing" textLength="149.6602" x="51.4199" y="500.248">Change CAN message ID</text><rect fill="#F1F1F1" height="33.9688" rx="12.5" ry="12.5" style="stroke:#181818;stroke-width:0.5;" width="187.4082" x="32.5459" y="540.0781"/><text fill="#000000" font-family="sans-serif" font-size="12" lengthAdjust="spacing" textLength="167.4082" x="42.5459" y="561.2168">Pack and Send Data (CAN1)</text><polygon fill="#F1F1F1" points="126.25,150.2656,138.25,162.2656,126.25,174.2656,114.25,162.2656,126.25,150.2656" style="stroke:#181818;stroke-width:0.5;"/><polygon fill="#F1F1F1" points="88.4805,594.0469,164.0195,594.0469,176.0195,606.0469,164.0195,618.0469,88.4805,618.0469,76.4805,606.0469,88.4805,594.0469" style="stroke:#181818;stroke-width:0.5;"/><text fill="#000000" font-family="sans-serif" font-size="11" lengthAdjust="spacing" textLength="75.5391" x="88.4805" y="609.855">car is running</text><rect fill="#FFFF00" height="304.2031" style="stroke:#000000;stroke-width:1.5;" width="195.2148" x="293.5" y="223.9063"/><path d="M389.3252,223.9063 L389.3252,233.2031 L379.3252,243.2031 L293.5,243.2031" fill="none" style="stroke:#000000;stroke-width:1.5;"/><text fill="#000000" font-family="sans-serif" font-size="14" lengthAdjust="spacing" textLength="85.8252" x="296.5" y="237.9014">receive loop</text><rect fill="#F1F1F1" height="33.9688" rx="12.5" ry="12.5" style="stroke:#181818;stroke-width:0.5;" width="142.0449" x="311.085" y="317.2031"/><text fill="#000000" font-family="sans-serif" font-size="12" lengthAdjust="spacing" textLength="122.0449" x="321.085" y="338.3418">Interrupt from CAN1</text><rect fill="#F1F1F1" height="33.9688" rx="12.5" ry="12.5" style="stroke:#181818;stroke-width:0.5;" width="83.1582" x="340.5283" y="371.1719"/><text fill="#000000" font-family="sans-serif" font-size="12" lengthAdjust="spacing" textLength="63.1582" x="350.5283" y="392.3105">Read Data</text><rect fill="#F1F1F1" height="33.9688" rx="12.5" ry="12.5" style="stroke:#181818;stroke-width:0.5;" width="157.2148" x="303.5" y="425.1406"/><text fill="#000000" font-family="sans-serif" font-size="12" lengthAdjust="spacing" textLength="137.2148" x="313.5" y="446.2793">Process Data (SPI, I2C)</text><polygon fill="#F1F1F1" points="382.1074,260.2031,394.1074,272.2031,382.1074,284.2031,370.1074,272.2031,382.1074,260.2031" style="stroke:#181818;stroke-width:0.5;"/><polygon fill="#F1F1F1" points="344.3379,492.1094,419.877,492.1094,431.877,504.1094,419.877,516.1094,344.3379,516.1094,332.3379,504.1094,344.3379,492.1094" style="stroke:#181818;stroke-width:0.5;"/><text fill="#000000" font-family="sans-serif" font-size="11" lengthAdjust="spacing" textLength="75.5391" x="344.3379" y="507.9175">car is running</text><line style="stroke:#181818;stroke-width:1.5;" x1="126.25" x2="382.1074" y1="650.0469" y2="650.0469"/><ellipse cx="252.8574" cy="681.0469" fill="none" rx="11" ry="11" style="stroke:#222222;stroke-width:1;"/><ellipse cx="252.8574" cy="681.0469" fill="#222222" rx="6" ry="6" style="stroke:#222222;stroke-width:1;"/><line style="stroke:#181818;stroke-width:1;" x1="252.8574" x2="252.8574" y1="30" y2="50"/><polygon fill="#181818" points="248.8574,40,252.8574,50,256.8574,40,252.8574,44" style="stroke:#181818;stroke-width:1;"/><line style="stroke:#181818;stroke-width:1;" x1="126.25" x2="126.25" y1="228.2344" y2="263.2344"/><polygon fill="#181818" points="122.25,253.2344,126.25,263.2344,130.25,253.2344,126.25,257.2344" style="stroke:#181818;stroke-width:1;"/><line style="stroke:#181818;stroke-width:1;" x1="126.25" x2="126.25" y1="297.2031" y2="317.2031"/><polygon fill="#181818" points="122.25,307.2031,126.25,317.2031,130.25,307.2031,126.25,311.2031" style="stroke:#181818;stroke-width:1;"/><line style="stroke:#181818;stroke-width:1;" x1="126.25" x2="126.25" y1="351.1719" y2="371.1719"/><polygon fill="#181818" points="122.25,361.1719,126.25,371.1719,130.25,361.1719,126.25,365.1719" style="stroke:#181818;stroke-width:1;"/><line style="stroke:#181818;stroke-width:1;" x1="126.25" x2="126.25" y1="405.1406" y2="425.1406"/><polygon fill="#181818" points="122.25,415.1406,126.25,425.1406,130.25,415.1406,126.25,419.1406" style="stroke:#181818;stroke-width:1;"/><line style="stroke:#181818;stroke-width:1;" x1="126.25" x2="126.25" y1="459.1094" y2="479.1094"/><polygon fill="#181818" points="122.25,469.1094,126.25,479.1094,130.25,469.1094,126.25,473.1094" style="stroke:#181818;stroke-width:1;"/><line style="stroke:#181818;stroke-width:1;" x1="126.25" x2="126.25" y1="513.0781" y2="540.0781"/><polygon fill="#181818" points="122.25,530.0781,126.25,540.0781,130.25,530.0781,126.25,534.0781" style="stroke:#181818;stroke-width:1;"/><line style="stroke:#181818;stroke-width:1;" x1="126.25" x2="126.25" y1="174.2656" y2="194.2656"/><polygon fill="#181818" points="122.25,184.2656,126.25,194.2656,130.25,184.2656,126.25,188.2656" style="stroke:#181818;stroke-width:1;"/><line style="stroke:#181818;stroke-width:1;" x1="176.0195" x2="243.5" y1="606.0469" y2="606.0469"/><polygon fill="#181818" points="239.5,398.1563,243.5,388.1563,247.5,398.1563,243.5,394.1563" style="stroke:#181818;stroke-width:1;"/><line style="stroke:#181818;stroke-width:1;" x1="243.5" x2="243.5" y1="162.2656" y2="606.0469"/><line style="stroke:#181818;stroke-width:1;" x1="243.5" x2="138.25" y1="162.2656" y2="162.2656"/><polygon fill="#181818" points="148.25,158.2656,138.25,162.2656,148.25,166.2656,144.25,162.2656" style="stroke:#181818;stroke-width:1;"/><line style="stroke:#181818;stroke-width:1;" x1="126.25" x2="126.25" y1="574.0469" y2="594.0469"/><polygon fill="#181818" points="122.25,584.0469,126.25,594.0469,130.25,584.0469,126.25,588.0469" style="stroke:#181818;stroke-width:1;"/><line style="stroke:#181818;stroke-width:1;" x1="382.1074" x2="382.1074" y1="351.1719" y2="371.1719"/><polygon fill="#181818" points="378.1074,361.1719,382.1074,371.1719,386.1074,361.1719,382.1074,365.1719" style="stroke:#181818;stroke-width:1;"/><line style="stroke:#181818;stroke-width:1;" x1="382.1074" x2="382.1074" y1="405.1406" y2="425.1406"/><polygon fill="#181818" points="378.1074,415.1406,382.1074,425.1406,386.1074,415.1406,382.1074,419.1406" style="stroke:#181818;stroke-width:1;"/><line style="stroke:#181818;stroke-width:1;" x1="382.1074" x2="382.1074" y1="284.2031" y2="317.2031"/><polygon fill="#181818" points="378.1074,307.2031,382.1074,317.2031,386.1074,307.2031,382.1074,311.2031" style="stroke:#181818;stroke-width:1;"/><line style="stroke:#181818;stroke-width:1;" x1="431.877" x2="472.7148" y1="504.1094" y2="504.1094"/><polygon fill="#181818" points="468.7148,398.1563,472.7148,388.1563,476.7148,398.1563,472.7148,394.1563" style="stroke:#181818;stroke-width:1;"/><line style="stroke:#181818;stroke-width:1;" x1="472.7148" x2="472.7148" y1="272.2031" y2="504.1094"/><line style="stroke:#181818;stroke-width:1;" x1="472.7148" x2="394.1074" y1="272.2031" y2="272.2031"/><polygon fill="#181818" points="404.1074,268.2031,394.1074,272.2031,404.1074,276.2031,400.1074,272.2031" style="stroke:#181818;stroke-width:1;"/><line style="stroke:#181818;stroke-width:1;" x1="382.1074" x2="382.1074" y1="459.1094" y2="492.1094"/><polygon fill="#181818" points="378.1074,482.1094,382.1074,492.1094,386.1074,482.1094,382.1074,486.1094" style="stroke:#181818;stroke-width:1;"/><line style="stroke:#181818;stroke-width:1;" x1="126.25" x2="126.25" y1="105.4688" y2="150.2656"/><polygon fill="#181818" points="122.25,140.2656,126.25,150.2656,130.25,140.2656,126.25,144.2656" style="stroke:#181818;stroke-width:1;"/><line style="stroke:#181818;stroke-width:1;" x1="382.1074" x2="382.1074" y1="105.4688" y2="260.2031"/><polygon fill="#181818" points="378.1074,250.2031,382.1074,260.2031,386.1074,250.2031,382.1074,254.2031" style="stroke:#181818;stroke-width:1;"/><line style="stroke:#181818;stroke-width:1;" x1="126.25" x2="126.25" y1="618.0469" y2="650.0469"/><polygon fill="#181818" points="122.25,640.0469,126.25,650.0469,130.25,640.0469,126.25,644.0469" style="stroke:#181818;stroke-width:1;"/><line style="stroke:#181818;stroke-width:1;" x1="382.1074" x2="382.1074" y1="516.1094" y2="650.0469"/><polygon fill="#181818" points="378.1074,640.0469,382.1074,650.0469,386.1074,640.0469,382.1074,644.0469" style="stroke:#181818;stroke-width:1;"/><line style="stroke:#181818;stroke-width:1;" x1="252.8574" x2="252.8574" y1="83.9688" y2="103.9688"/><polygon fill="#181818" points="248.8574,93.9688,252.8574,103.9688,256.8574,93.9688,252.8574,97.9688" style="stroke:#181818;stroke-width:1;"/><line style="stroke:#181818;stroke-width:1;" x1="252.8574" x2="252.8574" y1="651.5469" y2="670.0469"/><polygon fill="#181818" points="248.8574,660.0469,252.8574,670.0469,256.8574,660.0469,252.8574,664.0469" style="stroke:#181818;stroke-width:1;"/><!--SRC=[ZP6nReD038RtUmgBBaJgaep9X61XYL3J5x309QSUlfFFDAggldkF06gOsitoRylV_pigYXfpF8-j8myrMpqP4uEpQfeaMRMUuKceWqm5EGvMmNaVClWo04A1K5C1SAnPIMGC2c_Y1oYuTmGNukZbD4-y47QRFkHbSJxi7kLN6W89wYY_G_MXtCoKemYnGbvKMw4I-q5fuTBKQx-y8lS4wGuC52EckguMhS7s7P2xwL1QHiKxqFw-Erk3szKctBn50Hj1HcRB_SvyBo41zcZvCQfFSixV81DgAT7yBwpfwiP8ObaXnRS9VC5BpfvXpUClnCdL_4eJrOSV]--></g></svg>